<?xml version="1.0" encoding="utf-8"?>
<!-- Generator: Adobe Illustrator 15.0.0, SVG Export Plug-In . SVG Version: 6.00 Build 0)  -->
<!DOCTYPE svg PUBLIC "-//W3C//DTD SVG 1.1//EN" "http://www.w3.org/Graphics/SVG/1.1/DTD/svg11.dtd">
<svg version="1.1" id="图层_1" xmlns="http://www.w3.org/2000/svg" xmlns:xlink="http://www.w3.org/1999/xlink" x="0px" y="0px"
	 width="600px" height="600px" viewBox="0 0 600 600" enable-background="new 0 0 600 600" xml:space="preserve">
<g id="合成路径_12_">
	<g>
		<path fill-rule="evenodd" clip-rule="evenodd" d="M378.096,367.774l-11.084,11.396c-8.379,8.33-8.379,21.729,0,29.941
			l85.078,85.304l41.29-41.24l-85.235-85.401C399.805,359.435,386.426,359.435,378.096,367.774z M540.685,328.722L271.167,59.356
			c-11.46-11.406-28.789-12.5-38.877-2.637L56.762,232.208c-9.868,10.098-8.936,27.422,2.798,38.936l269.288,269.259
			c11.348,11.631,28.906,12.822,38.936,2.852l53.799-53.955l-73.975-74.259c-13.711-13.711-13.711-35.645,0-49.248l18.252-18.311
			c13.613-13.711,35.762-13.711,49.248,0l74.132,74.033l53.74-54.072C553.185,357.677,552.14,340.235,540.685,328.722z"/>
	</g>
</g>
</svg>
