<?xml version="1.0" encoding="utf-8"?>
<!-- Generator: Adobe Illustrator 15.0.0, SVG Export Plug-In . SVG Version: 6.00 Build 0)  -->
<!DOCTYPE svg PUBLIC "-//W3C//DTD SVG 1.1//EN" "http://www.w3.org/Graphics/SVG/1.1/DTD/svg11.dtd">
<svg version="1.1" id="图层_1" xmlns="http://www.w3.org/2000/svg" xmlns:xlink="http://www.w3.org/1999/xlink" x="0px" y="0px"
	 width="600px" height="600px" viewBox="0 0 600 600" enable-background="new 0 0 600 600" xml:space="preserve">
<g id="合成路径_6_">
	<g>
		<path fill-rule="evenodd" clip-rule="evenodd" d="M464.467,196.152H327.504l-56.354-55.834c5.111-7.458,8.085-16.475,8.085-26.178
			c0-25.874-21.179-46.857-47.362-46.857c-26.04,0.03-47.249,20.944-47.249,46.857c0,25.864,21.209,46.847,47.249,46.847
			c7.772,0,14.912-2.009,21.39-5.233l40.775,40.359H125.467v23.443h339V196.152z M350.182,160.987
			c26.109,0,47.26-20.983,47.26-46.847c0-25.874-21.15-46.857-47.26-46.857c-26.148,0.03-47.322,20.944-47.322,46.857
			C302.859,140.004,324.033,160.987,350.182,160.987z M504.014,271.235c-14.389-18.141-39.635-30.627-62.861-31.107H158.932
			c-23.311,0.48-48.552,12.966-62.935,31.107c-0.353,0.97-45.436,58.363-45.995,117.421c0.49,56.53,41.374,111.287,41.721,112.257
			c14,18.514,39.1,31.313,62.445,31.804h291.707c23.346-0.49,48.436-13.29,62.469-31.804c0.354-0.97,41.164-55.727,41.654-112.257
			C549.449,329.598,504.365,272.205,504.014,271.235z"/>
	</g>
</g>
</svg>
