<?xml version="1.0" encoding="utf-8"?>
<!-- Generator: Adobe Illustrator 15.0.0, SVG Export Plug-In . SVG Version: 6.00 Build 0)  -->
<!DOCTYPE svg PUBLIC "-//W3C//DTD SVG 1.1//EN" "http://www.w3.org/Graphics/SVG/1.1/DTD/svg11.dtd">
<svg version="1.1" id="图层_1" xmlns="http://www.w3.org/2000/svg" xmlns:xlink="http://www.w3.org/1999/xlink" x="0px" y="0px"
	 width="600px" height="600px" viewBox="0 0 600 600" enable-background="new 0 0 600 600" xml:space="preserve">
<g id="合成路径_9_">
	<g>
		<path fill-rule="evenodd" clip-rule="evenodd" d="M470,280.801H130v27.549h340V280.801z M470,200H130v27.549h340V200z
			 M470,361.689H130v27.461h340V361.689z M130,470h340v-27.549H130V470z M410,50h-30v100h30V50z M480,50h-30v100h30V50z M520,100
			v420H80V100H50v450h500V100H520z M150,50h-30v100h30V50z M220,50h-30v100h30V50z M280,50h-30v100h30V50z M350,50h-30v100h30V50z"
			/>
	</g>
</g>
</svg>
