<?xml version="1.0" encoding="utf-8"?>
<!-- Generator: Adobe Illustrator 15.0.0, SVG Export Plug-In . SVG Version: 6.00 Build 0)  -->
<!DOCTYPE svg PUBLIC "-//W3C//DTD SVG 1.1//EN" "http://www.w3.org/Graphics/SVG/1.1/DTD/svg11.dtd">
<svg version="1.1" id="图层_1" xmlns="http://www.w3.org/2000/svg" xmlns:xlink="http://www.w3.org/1999/xlink" x="0px" y="0px"
	 width="600px" height="600px" viewBox="0 0 600 600" enable-background="new 0 0 600 600" xml:space="preserve">
<g id="合成路径_1_">
	<g>
		<path fill-rule="evenodd" clip-rule="evenodd" d="M299.985,50C211.606,50,140,121.797,140,210.342
			c0.557,46.582,38.389,127.578,75.767,200.322c37.505,72.266,74.849,133.945,74.912,134.082c1.968,3.281,5.503,5.254,9.307,5.254
			c3.862,0,7.334-1.973,9.365-5.254c0.068-0.137,37.407-61.816,74.888-134.082c37.402-72.744,75.205-153.74,75.762-200.322
			C459.961,121.797,388.359,50,299.985,50z M299.985,313.457c-56.802-0.029-102.827-46.152-102.856-103.115
			c0.029-56.924,46.055-103.086,102.856-103.086c56.831,0,102.847,46.162,102.847,103.086
			C402.832,267.305,356.816,313.428,299.985,313.457z"/>
	</g>
</g>
</svg>
