<?xml version="1.0" encoding="utf-8"?>
<!-- Generator: Adobe Illustrator 15.0.0, SVG Export Plug-In . SVG Version: 6.00 Build 0)  -->
<!DOCTYPE svg PUBLIC "-//W3C//DTD SVG 1.1//EN" "http://www.w3.org/Graphics/SVG/1.1/DTD/svg11.dtd">
<svg version="1.1" id="图层_1" xmlns="http://www.w3.org/2000/svg" xmlns:xlink="http://www.w3.org/1999/xlink" x="0px" y="0px"
	 width="600px" height="600px" viewBox="0 0 600 600" enable-background="new 0 0 600 600" xml:space="preserve">
<g id="合成路径_1_">
	<g>
		<path fill-rule="evenodd" clip-rule="evenodd" d="M287.896,386.25h33.237V279.18h-33.237V386.25z M304.829,232.773
			c-10.649,0-17.666,7.197-17.666,16.592c0,9.258,6.758,16.67,17.188,16.67c11.138,0,17.964-7.412,17.964-16.67
			C322.129,239.971,315.488,232.773,304.829,232.773z M50,50v500h500V50H50z M299.907,440C222.734,440,160,377.363,160,300.107
			C160,222.783,222.734,160,299.907,160C377.48,160,440,222.783,440,300.107C440,377.363,377.48,440,299.907,440z"/>
	</g>
</g>
</svg>
