<?xml version="1.0" encoding="utf-8"?>
<!-- Generator: Adobe Illustrator 15.0.0, SVG Export Plug-In . SVG Version: 6.00 Build 0)  -->
<!DOCTYPE svg PUBLIC "-//W3C//DTD SVG 1.1//EN" "http://www.w3.org/Graphics/SVG/1.1/DTD/svg11.dtd">
<svg version="1.1" id="图层_1" xmlns="http://www.w3.org/2000/svg" xmlns:xlink="http://www.w3.org/1999/xlink" x="0px" y="0px"
	 width="600px" height="600px" viewBox="0 0 600 600" enable-background="new 0 0 600 600" xml:space="preserve">
<g id="合成路径">
	<g>
		<path fill-rule="evenodd" clip-rule="evenodd" d="M300,187.998c-62.593,0-113.335,47.012-113.335,105.01
			c0,25.459,9.79,48.789,26.055,66.973l-0.005,0.02c3.076,3.477,4.429,8.408,3.149,13.262l-6.494,24.404l23.35-12.305
			c4.287-2.51,9.399-2.217,13.53,0.205l0.127-0.049c15.967,7.959,34.219,12.49,53.623,12.49c62.598,0,113.34-47.012,113.34-105
			C413.34,235.01,362.598,187.998,300,187.998z M256.665,286.006c-9.204,0-16.665-7.832-16.665-17.5s7.461-17.5,16.665-17.5
			s16.67,7.832,16.67,17.5S265.869,286.006,256.665,286.006z M343.34,286.006c-9.219,0-16.68-7.832-16.68-17.5
			s7.461-17.5,16.68-17.5c9.199,0,16.66,7.832,16.66,17.5S352.539,286.006,343.34,286.006z M50,50v500h500V50H50z M300,426.016
			c-21.079,0-40.981-4.57-58.882-12.529l-46.973,24.746c-3.252,1.895-6.992,2.217-10.415,1.201c-0.015-0.01-0.029-0.01-0.044-0.01
			c-6.602-1.797-10.84-8.076-10.41-14.756c0.049-1.543,0.376-3.047,0.894-4.473l12.974-48.75
			C170.127,349.463,160,322.393,160,293.008C160,219.551,222.681,160,300,160c77.324,0,140,59.551,140,133.008
			S377.324,426.016,300,426.016z"/>
	</g>
</g>
</svg>
