<?xml version="1.0" encoding="utf-8"?>
<!-- Generator: Adobe Illustrator 15.0.0, SVG Export Plug-In . SVG Version: 6.00 Build 0)  -->
<!DOCTYPE svg PUBLIC "-//W3C//DTD SVG 1.1//EN" "http://www.w3.org/Graphics/SVG/1.1/DTD/svg11.dtd">
<svg version="1.1" id="图层_1" xmlns="http://www.w3.org/2000/svg" xmlns:xlink="http://www.w3.org/1999/xlink" x="0px" y="0px"
	 width="600px" height="600px" viewBox="0 0 600 600" enable-background="new 0 0 600 600" xml:space="preserve">
<g id="合成路径_2_">
	<g>
		<path fill-rule="evenodd" clip-rule="evenodd" d="M300,300c-16.567,0-30,13.428-30,30s13.433,30,30,30c16.563,0,30-13.428,30-30
			S316.563,300,300,300z M290,410h30v-20h-10v-30h-10h-10V410z M50,50v500h500V50H50z M390,365.303
			c0,41.25-33.438,74.697-74.707,74.697h-30.591C243.442,440,210,406.553,210,365.303V234.697c0-41.26,33.442-74.697,74.702-74.697
			h30.591c41.27,0,74.707,33.438,74.707,74.697V365.303z M305.4,180H294.6c-30.156,0-54.6,24.443-54.6,54.6V280h120v-45.4
			C360,204.443,335.557,180,305.4,180z"/>
	</g>
</g>
</svg>
