<?xml version="1.0" encoding="utf-8"?>
<!-- Generator: Adobe Illustrator 15.0.0, SVG Export Plug-In . SVG Version: 6.00 Build 0)  -->
<!DOCTYPE svg PUBLIC "-//W3C//DTD SVG 1.1//EN" "http://www.w3.org/Graphics/SVG/1.1/DTD/svg11.dtd">
<svg version="1.1" id="图层_1" xmlns="http://www.w3.org/2000/svg" xmlns:xlink="http://www.w3.org/1999/xlink" x="0px" y="0px"
	 width="600px" height="600px" viewBox="0 0 600 600" enable-background="new 0 0 600 600" xml:space="preserve">
<g id="购物车">
	<g>
		<path fill-rule="evenodd" clip-rule="evenodd" d="M223.343,467.93c-16.427,0-29.742,13.422-29.742,29.985
			c0,16.555,13.315,29.985,29.742,29.985c16.422,0,29.737-13.431,29.737-29.985C253.08,481.352,239.765,467.93,223.343,467.93z
			 M491.004,316.872c32.845,0,59.475-26.853,59.475-59.98v-88.835c0-13.25-10.648-23.985-23.797-23.985H229.288
			c-13.14,0-23.792,10.734-23.792,23.985c0,13.251,10.653,23.994,23.792,23.994h273.606v53.971c0,13.25-10.657,23.994-23.788,23.994
			l-44.528,4.905c0.025,0.094,0.034,0.188,0.068,0.282l-212.197,25.492c-2.054,0.24-4.126,0.377-6.112,0.83
			c-2.251,0.352-4.357,1.053-6.334,1.978c-2.422,0.848-4.725,1.926-6.993,3.056L145.212,91.728
			C143.17,80.565,133.515,72.1,121.856,72.1H74.271c-13.139,0-23.792,10.743-23.792,23.994c0,13.242,10.653,23.985,23.792,23.985
			h29.262l67.23,249.883c4.485,26.715,26.484,47.268,53.731,49.502c1.549,0.316,3.154,0.488,4.793,0.488h297.394
			c13.148,0,23.797-10.743,23.797-23.994s-10.648-23.993-23.797-23.993H229.288c-4.592,0-8.466-2.705-10.443-6.558l-1.408-5.229
			c-0.004-0.068-0.043-0.129-0.043-0.206c0-6.625,5.324-11.992,11.894-11.992l56.337-6.352c-0.021-0.068-0.03-0.137-0.051-0.197
			l204.882-24.618C490.645,316.812,490.815,316.872,491.004,316.872z M496.944,467.93c-16.418,0-29.737,13.422-29.737,29.985
			c0,16.555,13.319,29.985,29.737,29.985c16.427,0,29.737-13.431,29.737-29.985C526.682,481.352,513.371,467.93,496.944,467.93z"/>
	</g>
</g>
</svg>
