<?xml version="1.0" encoding="utf-8"?>
<!-- Generator: Adobe Illustrator 15.0.0, SVG Export Plug-In . SVG Version: 6.00 Build 0)  -->
<!DOCTYPE svg PUBLIC "-//W3C//DTD SVG 1.1//EN" "http://www.w3.org/Graphics/SVG/1.1/DTD/svg11.dtd">
<svg version="1.1" id="图层_1" xmlns="http://www.w3.org/2000/svg" xmlns:xlink="http://www.w3.org/1999/xlink" x="0px" y="0px"
	 width="600px" height="600px" viewBox="0 0 600 600" enable-background="new 0 0 600 600" xml:space="preserve">
<g id="餐具">
	<g>
		<path fill-rule="evenodd" clip-rule="evenodd" d="M79.466,464.06c0,0-1.694,9.624,2.939,10.493
			c4.494,0.848,6.568-8.697,6.568-8.697l68.561-330.963l-21.091-3.99L79.466,464.06z M107.276,125.394L50.306,458.552
			c0,0-1.703,9.623,2.927,10.499c4.496,0.841,6.563-8.703,6.563-8.703l68.573-330.969L107.276,125.394z M344.429,134.165
			c-1.955-0.37-3.843,0.915-4.218,2.871l-11.363,60.123c-0.369,1.956-2.256,3.234-4.212,2.859c-1.943-0.353-3.234-2.251-2.864-4.201
			l11.368-60.129c0.375-1.944-0.915-3.831-2.87-4.207c-1.95-0.364-3.837,0.921-4.207,2.871L314.7,194.487
			c-0.376,1.95-2.251,3.24-4.207,2.865c-1.955-0.364-3.24-2.251-2.87-4.207l11.374-60.123c0.358-1.95-0.921-3.837-2.876-4.206
			c-1.956-0.37-3.831,0.915-4.207,2.87l-11.368,60.129c-0.367,1.944-2.251,3.229-4.201,2.865c-1.956-0.364-3.246-2.256-2.868-4.207
			l11.365-60.128c0.364-1.95-0.918-3.831-2.867-4.201c-1.961-0.37-3.84,0.915-4.212,2.865l-18.656,68.513
			c0,0-2.231,11.795,0.199,18.349c0,0,2.061,6.02,4.669,13.563c1.924,5.571,4.67,12.267,4.724,16.587c0,0,5.125,9.237-5.261,49.192
			c-13.304,51.25-59.37,171.939-24.784,178.471c34.598,6.537,34.976-122.787,41.299-175.344c4.922-40.995,13.063-47.72,13.063-47.72
			c2.671-4.684,6.616-9.237,10.453-13.728c5.184-6.065,9.3-10.92,9.3-10.92c4.644-5.224,6.878-17.013,6.878-17.013l7.64-70.588
			C347.657,136.416,346.373,134.529,344.429,134.165z M522.644,128.714c-20.532-3.882-41.484,19.798-46.919,48.527
			c-2.296,12.159-0.386,23.556,2.24,32.185c0.188,1.529,0.472,2.984,0.943,4.246c0,0,2.058,5.997,4.661,13.546
			c1.933,5.582,4.673,12.278,4.729,16.598c0,0,5.115,9.22-5.253,49.187c-13.307,51.244-59.378,171.934-24.789,178.47
			c34.595,6.537,34.976-122.786,41.291-175.355c4.929-40.989,13.074-47.703,13.074-47.703c2.671-4.695,6.61-9.237,10.447-13.733
			c5.19-6.071,9.294-10.919,9.294-10.919c0.898-0.995,1.694-2.245,2.41-3.604c5.604-7.071,11.539-16.99,13.836-29.144
			C554.043,162.285,543.175,132.59,522.644,128.714z"/>
	</g>
</g>
</svg>
