<?xml version="1.0" encoding="utf-8"?>
<!-- Generator: Adobe Illustrator 15.0.0, SVG Export Plug-In . SVG Version: 6.00 Build 0)  -->
<!DOCTYPE svg PUBLIC "-//W3C//DTD SVG 1.1//EN" "http://www.w3.org/Graphics/SVG/1.1/DTD/svg11.dtd">
<svg version="1.1" id="图层_1" xmlns="http://www.w3.org/2000/svg" xmlns:xlink="http://www.w3.org/1999/xlink" x="0px" y="0px"
	 width="600px" height="600px" viewBox="0 0 600 600" enable-background="new 0 0 600 600" xml:space="preserve">
<g id="合成路径">
	<g>
		<path fill-rule="evenodd" clip-rule="evenodd" d="M549.708,143.598c-1.82-8.716-11.427-12.459-13.194-13.095
			c-13.909-7.007-27.738,4.39-43.733,17.595l-10.473,8.503c-19.432,15.232-104.212,85.347-116.805,95.756
			c-31.216-9.208-67.671-14.499-106.627-14.499C143.523,237.858,50,284.208,50,341.395c0,14.984,7.246,30.015,17.961,49.603
			c26.754,44.524,94.084,80.633,190.915,80.633c96.83,0,164.154-36.108,190.911-80.633c10.721-19.588,17.959-34.618,17.959-49.603
			c0-26.779-20.501-51.173-54.143-69.542c25.317-21.286,101.723-85.555,123.956-105.033
			C547.067,158.473,551.181,150.657,549.708,143.598z M241.056,287.582c-7.007-0.814-40.296,0-40.296,0
			c15.77-5.759,35.918-9.866,35.918-9.866l-26.283-3.287c17.532-5.759,45.565-5.759,45.565-5.759
			c58.82,0,71.038,10.149,71.038,10.149s-21.119-1.103-36.033,3.564c26.312,1.918,43.623,10.681,43.623,10.681
			c-13.285-1.785-34.155,0-34.155,0c73.996,12.471,100.544,51.081,100.544,51.081s-32.256-42.729-138.489-44.513
			c-106.238-1.779-140.396,42.74-140.396,42.74C158.863,293.52,241.056,287.582,241.056,287.582z M435.508,355.385
			c0,0,17.837-24.919-5.355-49.851c0,0,37.466,30.269,0,69.433c-37.454,39.177-103.473,65.898-210.527,55.212
			c0,0-85.647-7.122-135.616-55.212c0,0,78.516,53.433,180.21,49.862C264.219,424.829,389.134,423.057,435.508,355.385z
			 M525.308,153.505c-4.522,3.766-10.426,9.242-15.296,4.846c0,0-3.102-2.998,2.923-9.011c4.91-4.898,13.176-9.993,16.354-6.579
			C532.84,146.59,529.808,149.745,525.308,153.505z"/>
	</g>
</g>
</svg>
