<?xml version="1.0" encoding="utf-8"?>
<!-- Generator: Adobe Illustrator 15.0.0, SVG Export Plug-In . SVG Version: 6.00 Build 0)  -->
<!DOCTYPE svg PUBLIC "-//W3C//DTD SVG 1.1//EN" "http://www.w3.org/Graphics/SVG/1.1/DTD/svg11.dtd">
<svg version="1.1" id="图层_1" xmlns="http://www.w3.org/2000/svg" xmlns:xlink="http://www.w3.org/1999/xlink" x="0px" y="0px"
	 width="600px" height="600px" viewBox="0 0 600 600" enable-background="new 0 0 600 600" xml:space="preserve">
<g id="合成路径_3_">
	<g>
		<path fill-rule="evenodd" clip-rule="evenodd" d="M548.162,227.725c-5.538-26.594-23.948-48.961-54.763-66.467
			c-23.244-13.206-44.289-20.959-80.399-29.646c-53.801-12.959-103.077-13.314-146.461-1.065
			c-60.18,16.991-122.559,66.668-180.396,143.678c-29.44,39.192-40.979,72.629-34.308,99.355
			C57,394.292,73.069,411.082,99.56,423.468c86.27,40.338,177.149,50.262,178.054,50.365c52.815,6.745,85.342,7.393,116.248-7.828
			c43.39-21.366,72.257-59.979,100.174-97.328l6.23-8.292C533.588,316.027,550,278.393,550,245.964
			C550,239.688,549.394,233.624,548.162,227.725z M494.195,355.832l-6.236,8.315c-27.378,36.632-55.695,74.496-97.453,95.054
			c-29.177,14.356-60.609,13.652-112.01,7.084c-0.979-0.104-90.639-9.907-175.712-49.678c-24.332-11.39-38.998-26.474-43.584-44.878
			c-6.087-24.39,5.017-55.668,33.014-92.947c56.824-75.658,117.822-124.396,176.399-140.929
			c42.101-11.894,90.095-11.51,142.613,1.122c35.344,8.516,55.885,16.075,78.43,28.896c28.821,16.378,46.007,37.033,51.086,61.411
			C547.715,262.88,532.054,305.456,494.195,355.832z M522.049,246.313c-78.384,78.373-150.337,196.229-151.059,197.409
			c-1.088,1.792-0.521,4.123,1.271,5.211c1.792,1.088,4.123,0.527,5.211-1.266c0.716-1.18,72.217-118.264,149.948-195.989
			c1.483-1.478,1.483-3.889,0-5.366C525.932,244.83,523.532,244.83,522.049,246.313z M317.733,215.081l-0.366,0.372l-25.604,24.882
			l5.979,1.357l25.97-25.254L317.733,215.081z M336.391,232.278c-0.802-0.178-8.315-1.896-10.76-2.457
			c1.946-1.907,10.788-10.491,10.788-10.491l-5.961-1.357l-0.378,0.361l-25.592,24.887l5.967,1.352c0,0,10.348-10.067,11.041-10.726
			c0.802,0.178,8.314,1.896,10.754,2.445c-1.958,1.913-11.04,10.737-11.04,10.737l5.801,1.323l25.958-25.266l-5.784-1.311
			C347.185,221.775,337.078,231.602,336.391,232.278z M302.403,371.884c-8.83-1.042-39.57-5.234-74.685-14.717
			c0,0-27.516-7.6-59.773-22.374c0,0-11.052-7.353-20.037-4.483c-6.339,2.016-10.336,5.022-20.696,17.78
			c-5.641,6.924-13.005,17.26-13.005,17.26s-4.81,7.782-3.665,14.259c1.397,7.914,8.35,11.591,8.35,11.591
			s57.591,37.113,160.033,48.612c0,0,23.083,2.474,30.442-13.063c6.688-14.109,12.323-29.589,12.323-29.589
			s5.635-11.264-0.882-18.227C316.004,373.825,309.401,372.703,302.403,371.884z M149.306,380.674
			c-1.833,1.644-4.478,2.509-7.267,2.343c-5.137-0.327-9.197-3.957-9.042-8.098v-0.006c0.069-2.119,1.243-3.602,2.193-4.467
			c1.815-1.654,4.461-2.496,7.244-2.33c5.143,0.314,9.203,3.934,9.042,8.097C151.402,378.344,150.245,379.81,149.306,380.674z
			 M164.55,360.059c-1.821,1.649-4.461,2.503-7.244,2.331c-5.154-0.315-9.208-3.946-9.054-8.092c0.086-2.13,1.243-3.625,2.193-4.473
			c1.821-1.66,4.461-2.496,7.244-2.33c5.16,0.303,9.203,3.934,9.048,8.08C166.663,357.717,165.506,359.194,164.55,360.059z
			 M221.248,408.671c-4.438-1.3-38.557-11.229-46.471-13.532c4.301-6.093,16.847-23.913,19.224-27.286
			c4.267,1.294,37.188,11.212,44.655,13.469C234.871,387.271,223.539,405.063,221.248,408.671z M289.422,411.946
			c-3.109,3.493-7.88,5.646-13.097,5.881c-9.729,0.453-18.107-5.749-18.663-13.829c-0.246-3.419,0.928-6.683,3.378-9.438
			c3.104-3.487,7.874-5.629,13.085-5.875c9.723-0.458,18.107,5.749,18.668,13.847C293.035,405.894,291.838,409.232,289.422,411.946z
			 M465.494,248.048c13.841-49.185-25.306-95.913-113.859-100.563c-74.852-3.951-159.432,28.455-174.618,92.964
			c-12.358,52.535,41.757,87.283,115.778,92.976C367.514,339.186,448.418,308.767,465.494,248.048z M408.876,238.354
			c-10.09,35.464-61.909,53.915-104.119,50.674c-29.88-2.296-53.142-11.991-63.815-26.588c-5.807-7.937-7.559-17.002-5.234-26.943
			c9.191-39.009,61.136-57.58,105.379-55.25c29.423,1.546,51.625,10.794,62.511,26.027
			C410.343,215.699,412.169,226.797,408.876,238.354z M366.483,215.018l-45.903-10.439c-3.791-0.876-9.266,0.888-12.461,4.003
			l-30.809,29.949c-1.97,1.941-2.8,4.129-2.262,6.019c0.275,0.979,1.157,2.691,3.945,3.333l45.916,10.434
			c3.785,0.859,9.254-0.911,12.455-4.026l30.809-29.949c1.586-1.535,2.422-3.27,2.405-4.885c0-0.384-0.052-0.768-0.155-1.111
			C370.159,217.372,369.277,215.631,366.483,215.018z M365.521,221.615c-0.012,0-30.809,29.967-30.809,29.967
			c-2.245,2.182-6.442,3.608-8.957,3.035l-45.932-10.434c-0.619-0.161-1.048-0.395-1.123-0.665c-0.08-0.28,0.08-1.117,1.26-2.262
			l30.797-29.961c2.262-2.188,6.442-3.602,8.968-3.018l45.903,10.411c0.63,0.161,1.071,0.407,1.14,0.676
			C366.85,219.645,366.701,220.475,365.521,221.615z"/>
	</g>
</g>
</svg>
