<?xml version="1.0" encoding="utf-8"?>
<!-- Generator: Adobe Illustrator 15.0.0, SVG Export Plug-In . SVG Version: 6.00 Build 0)  -->
<!DOCTYPE svg PUBLIC "-//W3C//DTD SVG 1.1//EN" "http://www.w3.org/Graphics/SVG/1.1/DTD/svg11.dtd">
<svg version="1.1" id="图层_1" xmlns="http://www.w3.org/2000/svg" xmlns:xlink="http://www.w3.org/1999/xlink" x="0px" y="0px"
	 width="600px" height="600px" viewBox="0 0 600 600" enable-background="new 0 0 600 600" xml:space="preserve">
<g id="合成路径_2_">
	<g>
		<path fill-rule="evenodd" clip-rule="evenodd" d="M549.315,444.69c-4.488-16.361-20-18.646-24.114-19.556l-78.415-18.553
			c13.933,1.957,31.541,2.611,44.65-5.162c20.389-12.083,27.994-24.508,30.115-49.251l0.071-0.813
			c2.745-3.062,10.36-12.354,13.079-24.585c2.638-11.827,2.944-25.479,2.944-34.72c0-17.965-8.352-31.52-24.16-39.187
			c-19.943-9.67-59.811-18.038-90.478-22.617c-32.7-4.896-55.583-5.826-75.792,3.905c-5.035,2.428-9.358,5.699-12.973,9.41
			l-1.364-5.704c-2.709-12.359-9.609-43.813-30.135-60.061c0.854-1.676,1.559-3.476,2.069-5.407
			c1.687-6.307,1.846-16.08-6.946-26.777c-13.212-16.1-33.631-23.062-60.679-20.71c-14.837,1.293-23.68,5.06-28.755,7.697
			c-2.97-5.3-8.291-6.522-11.127-6.317l-0.087,0.01c-0.383,0.025-0.736,0.127-1.079,0.235c-1.344-1.14-2.954-1.814-4.851-1.814
			c-0.854-0.036-3.7,0.021-5.77,2.331c-0.992,1.114-1.549,2.51-1.728,4.146c-33.028-2.556-49.174,1.308-64.16,8.367
			c-16.948,7.983-16.867,21.027-16.31,25.402c-2.862,4.385-4.482,9.185-4.61,13.774c-5.203,2.647-16.948,9.772-31.627,25.995
			C52.816,220.496,50,245.647,50,266.532c0,8.178,0.429,15.696,0.787,21.748l0.389,8.02c0.552,18.446,5.085,25.853,10.835,35.241
			c3.072,5.024,6.133,11.066,9.374,17.47c2.796,5.53,5.689,11.26,8.842,16.811l0.992,1.764c6.404,11.454,12.461,22.274,41.41,16.392
			c8.224-1.677,14.899-3.292,21.354-4.841c15.512-3.73,28.918-6.94,56.406-9.144l3.112-0.256c6.317-0.485,12.037-0.961,17.337-1.441
			c-4.917,5.408-5.602,12.359-5.688,13.642c-3.22,18.104,13.963,27.416,23.552,29.804c0.214,0.061,31.06,8.714,84.425,21.053
			l60.311,14.081c47.182,11.065,91.755,21.513,115.926,26.439c32.072,6.527,42.146-3.046,44.472-6.134
			c3.24-4.318,6.164-10.672,6.164-17.214C550,448.217,549.796,446.434,549.315,444.69z M190.193,131.189
			c0.158-0.189,0.639-0.256,0.874-0.246l0.214,0.01c2.408,0,4.692,7.575,4.692,15.594c0,3.118,0,11.418-2.091,11.418
			c-0.608,0-0.767-0.174-0.864-0.286c-0.245-0.281-0.91-1.319-0.91-4.385c0-0.91,0.046-1.994,0.194-3.297
			c0.062-0.521,0.087-1.099,0.087-1.712c0-5.239-1.922-13.141-2.229-14.357c-0.143-0.685-0.194-1.231-0.194-1.646
			C189.968,131.66,190.096,131.317,190.193,131.189z M122.307,145.209c12.665-5.975,26.327-9.506,52.036-8.362
			c-23.118,5.014-53.187,12.328-64.226,20.562C111.395,153.525,114.61,148.823,122.307,145.209z M114.364,192.001
			c-5.198-2.193-8.387-5.729-9.215-10.232c-0.153-0.813-0.225-1.667-0.225-2.525c0-5.306,2.837-11.193,7.785-15.891
			c5.898-5.602,26.015-12.21,59.508-19.622l-3.112,3.797c-5.172,1.82-35.328,12.384-43.286,14.725
			c-6.762,1.988-13.003,7.268-15.18,12.819c-0.542,1.39-0.818,2.75-0.818,4.053c0,1.564,0.394,3.057,1.181,4.365
			c5.07,8.413,15.369,5.582,25.76,1.268c9.261-3.849,20.761-15.778,31.883-27.304c3.246-3.358,6.358-6.588,9.226-9.399
			c-0.787,1.697-1.426,3.547-1.886,5.525c-5.004,6.149-14.413,17.496-21.313,24.554
			C146.447,186.568,124.668,196.331,114.364,192.001z M177.768,277.991c-11.265-6.608-14.326-14.413-14.326-22.325
			c0-4.58,0.991-9.195,1.952-13.601l0.833-3.992c0.21-1.058,0.455-2.101,0.71-3.133c0.215,10.033,1.774,20.884,6.338,32.282
			l0.062,0.143l4.922,9.481L177.768,277.991z M179.045,264.809c-4.564-11.444-5.929-22.213-5.929-32.302
			c0-7.799,0.818-15.195,1.589-22.182l1.099-11.761c1.022-17.245,6-42.33,6.046-42.576c0.69-3.777,2.376-7.028,4.211-9.583
			c0.087,1.124,0.118,2.131,0.031,2.918c-0.348,3.072-0.307,5.647,0.107,7.774c-3.977,11.541-7.805,40.086-7.805,69.71l0.031,5.27
			c0.322,20.296,4.042,32.215,6.337,37.689c-0.854,0.496-1.604,1.058-2.295,1.635L179.045,264.809z M189.319,281.957
			c-1.196,1.293-3.711,3.981-4.621,3.859c-0.194-0.01-0.874-0.491-1.789-1.978c0-1.717,0.521-6.629,6.057-9.236
			c3.169-1.487,5.106-0.516,5.791,0.777c0.225,0.409,0.629,1.426-0.394,2.044C192.529,278.507,190.898,280.271,189.319,281.957z
			 M198.907,290.866c-0.547,1.058-1.962,1.313-3.103,1.206c-2.709-0.276-3.833-2.331-4.247-3.46
			c0.808-0.772,1.589-1.605,2.346-2.408c0.874-0.94,1.758-1.881,2.581-2.602c1.891,2.582,2.678,4.651,2.678,6.021
			C199.163,290.129,199.076,290.543,198.907,290.866z M203.012,156.167c-0.179,0.153-0.583,0.496-1.534,0.48
			c0.736-3.343,0.747-7.171,0.747-10.1c0-4.59-0.608-9.527-2.019-13.54c1.37,0.619,2.923,1.958,3.67,4.932
			c0.761,3.077,1.206,6.629,1.206,9.803C205.082,151.603,204.442,154.905,203.012,156.167z M514.636,357.352
			c-2.581,18.758-9.501,28.699-26.378,38.701c-15.753,9.333-40.266,4.661-53.437,2.167l-4.59-0.854
			c-2.709-0.449-7.667-1.497-13.575-2.801l2.131-35.246l20.276,4.375C441.18,364.195,488.59,374.934,514.636,357.352z
			 M491.917,318.676c14.623-0.972,11.685,2.918,0,4.855c-11.699,1.958-28.264-2.908-28.264-2.908
			C446.106,314.786,477.294,319.642,491.917,318.676z M393.927,316.969c1.554-18.161,11.505-33.013,11.592-33.162l28.352-45.52
			c5.699,0.956,11.572,2.024,17.439,3.2l-27.947,50.61c-7.432,14.241-8.607,30.315-8.658,30.995l-4.191,69.537l-20.863-4.672
			C390.231,376.876,392.496,333.539,393.927,316.969z M348.898,289.767c0,0,5.151,2.372,15.256,5.213
			c10.1,2.837,24.861,9.283,7.509,6.046C351.653,297.291,331.995,287.656,348.898,289.767z M342.79,349.792
			c0.945-3.721,3.42-6.092,5.771-7.569c7.688,2.407,17.158,4.702,31.837,8.244l4.963,1.222c-0.833,14.582-1.579,28.847-1.911,35.175
			l-10.754-2.576c-17.373-4.917-26.506-9.716-32.496-15.195C339.545,363.49,341.175,356.313,342.79,349.792z M324.364,330.866
			c-0.572,6.189-1.717,26.015,5.347,35.757c4.938,6.803,11.562,12.727,25.336,18.288c-46.256-10.887-84.855-19.975-88.898-20.823
			l-3.476-0.767l-4.493-0.966c8.694-2.428,17.281-5.827,27.232-10.882l15.436-7.452
			C310.519,339.498,318.104,335.926,324.364,330.866z M246.553,179.489c-1.917-4.6-4.033-8.49-6.195-11.848
			c3.604,2.908,6.696,6.011,9.205,8.822c3.634,6.256,6.496,12.338,9.267,18.221c3.721,7.902,7.222,15.364,12.031,21.917
			c2.847,3.884,6.251,7.692,9.262,10.81l-0.302,0.348c-0.715,1.048-1.191,2.213-1.492,3.399
			C270.979,224.099,258.861,209.108,246.553,179.489z M291.449,242.954c0.118,1.032,0.307,2.745,0.307,4.074
			c0,0.874-0.092,1.589-0.317,1.824c0,0-0.424,0.271-1.845,0.087c-1.784-0.225-2.53-2.029-4.702-9.036l-0.491-1.569
			c-0.133-0.628-0.322-1.83-0.322-3.153c0-1.396,0.204-2.903,0.894-3.885c0.302-0.429,0.803-0.951,2.04-1.119
			c1.482-0.194,2.55-0.077,3.031,0.348c1.022,0.889,1.063,4.15,1.063,6.92v0.767L291.449,242.954z M304.666,242.269
			c0.777,1.4,0.629,4.145-0.607,5.219c-0.91,0.777-2.903,0.813-6.062-0.838c-0.021-1.421-0.169-2.898-0.337-4.37l-0.205-2.826
			C300.015,239.626,303.629,240.363,304.666,242.269z M249.063,160.788l5.996,5.903c9.456,9.594,20.179,20.485,32.287,12.027
			l0.128-0.092l0.128-0.107c0.286-0.235,6.751-5.934,7.176-14.04c0.266-4.748-1.549-9.226-5.367-13.304
			c-14.469-15.492-40.071-18.39-53.749-16.56c-5.862,0.782-16.223,3.563-24.891,6.072l-0.353-2.085
			c4.478-2.397,12.732-6.23,27.304-7.493c25.239-2.172,43.327,3.849,55.307,18.446c7.125,8.668,7.059,16.335,5.75,21.242
			c-1.942,7.293-7.519,12.395-11.873,14.05c-8.428,3.21-21.513,0.93-30.186-9.614c-8.05-9.813-24.191-25.351-45.474-25.361
			l0.066-2.096c2.305-0.235,4.83-0.342,7.401-0.205C227.08,148.046,240.731,153.111,249.063,160.788z M227.228,142.694
			c3.624-0.874,6.879-1.589,9.267-1.891c11.924-1.605,35.583,0.951,48.331,14.618c2.474,2.643,3.731,5.403,3.731,8.224l-0.01,0.46
			c-0.071,1.39-0.444,2.683-0.935,3.859c-14.378-8.96-30.222-18.047-49.491-21.436C234.424,144.877,230.704,143.574,227.228,142.694
			z M213.51,156.157c1.993,0.127,3.936,0.398,5.821,0.813c16.591,11.612,21.728,26.604,26.016,39.187l0.792,2.326
			c4.682,13.58,9.491,20.209,18.098,26.087c2.709,3.593,5.229,6.512,7.488,8.853c-4.886-2.285-10.237-5.055-14.837-8.004
			c-9.087-5.842-11.475-13.989-14.485-24.309c-1.446-4.917-3.072-10.498-5.632-16.351
			C230.801,171.046,220.333,161.375,213.51,156.157z M538.843,463.428c-3.481,4.636-15.584,8.393-38.231,3.782
			c-24.084-4.917-68.606-15.354-115.741-26.399l-60.332-14.086c-53.196-12.303-83.924-20.925-84.226-21.007
			c-0.68-0.174-14.24-4.073-17.046-12.2c4.289,2.949,11.93,6.926,22.146,9.655c23.701,6.343,257.335,60.209,259.701,60.745
			c1.206,0.256,22.197,4.626,34.878-2.172C539.609,462.354,539.226,462.922,538.843,463.428z M542.456,449.127
			c-3.731,15.323-35.665,8.78-35.987,8.693c-2.306-0.521-235.873-54.213-259.435-60.679c-25.694-7.027-24.36-17.22-24.36-17.22
			c0-0.071-0.608-5.116,5.045-9.384c8.862-6.706,23.516-3.389,33.585-1.124l3.552,0.771c10.325,2.172,259.374,61.119,259.374,61.119
			c4.969,1.313,17.056,3.174,18.579,14.07C543.085,447.313,542.456,449.127,542.456,449.127z M262.96,383.143
			c0,0,201.566,48.33,232.812,54.565c15.624,3.113,19.56,2.781,18.804,0.118c-0.787-2.714-7.784-4.651-14.112-6.354
			c-7.692-2.08-237.503-54.571-237.503-54.571c-11.817-2.366-12.875-2.33-13.708-0.741
			C248.005,378.558,262.96,383.143,262.96,383.143z M275.942,392.94l-24.574-6.589c-9.067-3.25-9.92-0.47-9.92-0.47
			c-0.48,3.302,5.193,4.712,5.193,4.712s18.078,5.061,23.281,6.481c5.198,1.41,8.556,1.938,9.803-0.353
			C281.094,394.192,275.942,392.94,275.942,392.94z M504.281,445.437c-7.81-1.559-199.625-45.847-199.625-45.847
			c-12.267-2.448-14.061-2.29-14.454-0.762c-0.833,3.297,11.903,6.471,11.903,6.471s166.397,39.407,197.483,46.373
			c12.64,2.837,16.146,3.23,16.888-0.332C517.059,448.539,508.109,446.208,504.281,445.437z"/>
	</g>
</g>
</svg>
