<?xml version="1.0" encoding="utf-8"?>
<!-- Generator: Adobe Illustrator 15.0.0, SVG Export Plug-In . SVG Version: 6.00 Build 0)  -->
<!DOCTYPE svg PUBLIC "-//W3C//DTD SVG 1.1//EN" "http://www.w3.org/Graphics/SVG/1.1/DTD/svg11.dtd">
<svg version="1.1" id="图层_1" xmlns="http://www.w3.org/2000/svg" xmlns:xlink="http://www.w3.org/1999/xlink" x="0px" y="0px"
	 width="600px" height="600px" viewBox="0 0 600 600" enable-background="new 0 0 600 600" xml:space="preserve">
<g id="合成路径_1_">
	<g>
		<path fill-rule="evenodd" clip-rule="evenodd" d="M527.171,264.106c0,0-9.525,1.266-13.009,1.736
			c-1.599-7.237-6.888-30.75-6.888-30.75s-9.382,2.092-12.797,2.868c-2.259-7.071-9.571-30.026-9.571-30.026
			s-9.158,2.892-12.504,3.944c-2.852-6.83-12.136-29.072-12.136-29.072s-8.877,3.686-12.107,5.036
			c-3.449-6.565-14.648-27.916-14.648-27.916s-8.502,4.443-11.624,6.076c-3.995-6.255-17.027-26.537-17.027-26.537l-5.02,3.208
			l-18.235,11.659l-54.2-54.137l-4.219,4.219L62.739,364.073l33.148,33.102C72.524,406.333,50,422.108,50,440.86
			c0,1.099,0.086,2.214,0.253,3.341c1.656,11.63,11.118,24.846,46.83,21.805c19.299-1.644,37.379-5.088,53.166-9.06v42.857h374.14
			v-62.186L550,434.197L527.171,264.106z M204.092,425.845c-1.972,0.937-49.032,23.254-108.021,28.296
			c-21.213,1.794-32.648-2.116-33.999-11.624c-1.915-13.4,21.248-29.176,45.255-36.154l10.009,9.991
			c-17.31,3.72-30.239,12.343-34.016,15.085c-2.127,1.54-3.104,4.317-2.236,6.801c0.879,2.478,3.173,4.093,5.801,3.973l8.123-0.408
			c56.448-4.801,103.238-26.888,103.703-27.111c3.093-1.473,6.795-0.179,8.273,2.896
			C208.473,420.653,207.167,424.355,204.092,425.845z M150.249,328.2v84.727c-19.891-31.009-40.932-63.817-43.984-68.578
			c9.56-6.104,285.424-182.324,294.991-188.435c4.196,6.554,16.487,25.697,16.487,25.697s7.795-4.076,10.733-5.605
			c3.609,6.893,14.176,27.037,14.176,27.037s8.129-3.375,11.193-4.657c2.983,7.169,11.773,28.158,11.773,28.158
			s8.371-2.65,11.544-3.662c2.34,7.416,9.256,29.078,9.256,29.078s8.583-1.921,11.825-2.639c1.69,7.588,6.675,29.772,6.675,29.772
			s8.715-1.167,12.021-1.598c0.552,4.087,3.409,25.45,6.795,50.704H150.249z M524.389,333.075
			c5.215,38.902,11.366,84.715,12.193,90.89c-1.121,0.161-5.393,0.73-12.193,1.633V333.075z"/>
	</g>
</g>
</svg>
