<?xml version="1.0" encoding="utf-8"?>
<!-- Generator: Adobe Illustrator 15.0.0, SVG Export Plug-In . SVG Version: 6.00 Build 0)  -->
<!DOCTYPE svg PUBLIC "-//W3C//DTD SVG 1.1//EN" "http://www.w3.org/Graphics/SVG/1.1/DTD/svg11.dtd">
<svg version="1.1" id="图层_1" xmlns="http://www.w3.org/2000/svg" xmlns:xlink="http://www.w3.org/1999/xlink" x="0px" y="0px"
	 width="600px" height="600px" viewBox="0 0 600 600" enable-background="new 0 0 600 600" xml:space="preserve">
<g id="icon">
	<g>
		<path fill-rule="evenodd" clip-rule="evenodd" d="M228.564,477.637c-13.147,0-23.804,10.596-23.804,23.682
			c0,13.074,10.657,23.682,23.804,23.682c13.159,0,23.816-10.607,23.816-23.682C252.38,488.232,241.724,477.637,228.564,477.637z
			 M550,277.051v-71.79c0-26.123-21.362-47.363-47.619-47.363H216.663c-6.58,0-11.902,5.298-11.902,11.841
			s5.322,11.841,11.902,11.841h285.718c13.122,0,23.803,10.632,23.803,23.682v71.79c0,21.033-0.658,24.609-24.047,27.93
			l-294.043,41.797c-27.93-97.107-75.208-263.159-75.208-263.159C131.421,78.516,126.758,75,121.423,75H61.902
			C55.322,75,50,80.298,50,86.841s5.322,11.841,11.902,11.841h50.525c11.743,41.211,62.488,219.299,83.569,292.029
			c7.446,25.646,18.445,39.551,55.273,39.551h286.828c6.58,0,11.902-5.299,11.902-11.842s-5.322-11.84-11.902-11.84H251.27
			c-24.707,0-27.454-5.384-32.397-22.438c-1.27-4.406-2.673-9.265-4.163-14.379l290.796-41.321
			C543.115,323.096,550,306.934,550,277.051z M490.479,477.637c-13.146,0-23.816,10.596-23.816,23.682
			c0,13.074,10.67,23.682,23.816,23.682s23.804-10.607,23.804-23.682C514.282,488.232,503.625,477.637,490.479,477.637z"/>
	</g>
</g>
</svg>
