<?xml version="1.0" encoding="utf-8"?>
<!-- Generator: Adobe Illustrator 15.0.0, SVG Export Plug-In . SVG Version: 6.00 Build 0)  -->
<!DOCTYPE svg PUBLIC "-//W3C//DTD SVG 1.1//EN" "http://www.w3.org/Graphics/SVG/1.1/DTD/svg11.dtd">
<svg version="1.1" id="图层_1" xmlns="http://www.w3.org/2000/svg" xmlns:xlink="http://www.w3.org/1999/xlink" x="0px" y="0px"
	 width="600px" height="600px" viewBox="0 0 600 600" enable-background="new 0 0 600 600" xml:space="preserve">
<g id="商城">
	<g>
		<path fill-rule="evenodd" clip-rule="evenodd" d="M300,339.473c87.207,0,157.891-70.693,157.891-157.891
			c0-14.541-11.777-26.318-26.309-26.318c-14.541,0-26.318,11.777-26.318,26.318c0,58.125-47.129,105.254-105.264,105.254
			s-105.264-47.129-105.264-105.254c0-14.541-11.782-26.318-26.318-26.318c-14.531,0-26.313,11.777-26.313,26.318
			C142.104,268.779,212.793,339.473,300,339.473z M50,50v500h500V50H50z M500,500H100V100h400V500z"/>
	</g>
</g>
</svg>
