<?xml version="1.0" encoding="utf-8"?>
<!-- Generator: Adobe Illustrator 15.0.0, SVG Export Plug-In . SVG Version: 6.00 Build 0)  -->
<!DOCTYPE svg PUBLIC "-//W3C//DTD SVG 1.1//EN" "http://www.w3.org/Graphics/SVG/1.1/DTD/svg11.dtd">
<svg version="1.1" id="图层_1" xmlns="http://www.w3.org/2000/svg" xmlns:xlink="http://www.w3.org/1999/xlink" x="0px" y="0px"
	 width="600px" height="600px" viewBox="0 0 600 600" enable-background="new 0 0 600 600" xml:space="preserve">
<g id="主题">
	<g>
		<path fill-rule="evenodd" clip-rule="evenodd" d="M542.861,507.653l-68.577-68.841c-9.518-9.548-24.951-9.548-34.459,0
			c-9.519,9.547-9.519,25.02,0,34.567l68.576,68.841c9.519,9.548,24.941,9.548,34.46,0S552.38,517.201,542.861,507.653z
			 M523.374,313.576c1.792-11.712,1.646-34.773-19.496-57.717c-17.95-19.438-45.271-47.954-60.097-63.357
			c-3.731-20.985-10.723-59.626-15.981-85.665c-6.659-33.099-34.039-56.219-66.599-56.219c-10.41,0-20.751,2.331-30.749,6.943
			c-24.716,11.398-61.438,29.045-80.778,38.387c-21.729-2.565-63.259-7.403-90.032-10.076c-2.311-0.226-4.573-0.333-6.806-0.333
			c-19.125,0-37.485,8.206-50.353,22.532c-13.181,14.66-19.536,34.225-17.45,53.653c2.84,26.528,7.854,66.98,10.546,88.417
			c-9.4,19.536-27.115,56.541-38.396,81.071c-9.567,20.839-9.577,42.529-0.03,61.105c9.264,18.008,26.381,30.602,46.965,34.567
			c26.176,5.043,67.872,12.271,89.866,16.021c15.854,14.865,45.594,42.637,65.296,60.371c17.764,15.991,35.459,19.35,47.161,19.35
			c23.776,0,44.957-13.171,58.128-36.135c13.494-23.512,33.618-60.272,44.145-79.612c18.851-10.272,54.319-29.682,77.978-43.273
			C514.385,347.673,521.563,325.425,523.374,313.576z M462.151,320.695c-32.647,18.762-89.641,49.608-89.641,49.608
			s-32.012,59.107-50.5,91.335c-7.706,13.435-18.399,15.345-30.15,4.769c-27.282-24.56-75.275-69.762-75.275-69.762
			s-67.401-11.379-103.35-18.302c-9.988-1.92-19.125-11.135-11.741-27.214c15.57-33.882,44.301-93.292,44.301-93.292
			s-8.353-65.188-12.27-101.822c-1.224-11.428,8.059-23.277,21.132-21.984c36.742,3.663,103.301,11.673,103.301,11.673
			s58.706-28.496,92.833-44.233c14.64-6.747,26.254,1.234,28.938,14.513c7.314,36.33,18.351,99.227,18.351,99.227
			s44.674,46.182,69.713,73.326C480.376,302.168,475.342,313.105,462.151,320.695z"/>
	</g>
</g>
</svg>
