<?xml version="1.0" encoding="utf-8"?>
<!-- Generator: Adobe Illustrator 15.0.0, SVG Export Plug-In . SVG Version: 6.00 Build 0)  -->
<!DOCTYPE svg PUBLIC "-//W3C//DTD SVG 1.1//EN" "http://www.w3.org/Graphics/SVG/1.1/DTD/svg11.dtd">
<svg version="1.1" id="图层_1" xmlns="http://www.w3.org/2000/svg" xmlns:xlink="http://www.w3.org/1999/xlink" x="0px" y="0px"
	 width="600px" height="600px" viewBox="0 0 600 600" enable-background="new 0 0 600 600" xml:space="preserve">
<g id="合成路径_4_">
	<g>
		<path fill-rule="evenodd" clip-rule="evenodd" d="M300,49.933c-83.358,0-150.931,67.857-150.931,151.568
			c0,50.839,25.008,95.715,63.255,123.22C134.146,358.787,79.41,436.916,79.41,527.96h0.333
			c0.862,12.26,10.928,21.974,23.363,21.974c12.426,0,22.501-9.714,23.363-21.974h0.235c-0.01-0.528-0.069-1.048-0.079-1.566v-0.078
			c0-0.059-0.01-0.108-0.01-0.147c0.02-90.486,67.71-164.913,154.623-174.392c6.159,0.773,12.396,1.292,18.761,1.292
			c83.357,0,150.932-67.857,150.932-151.567C450.932,117.791,383.357,49.933,300,49.933z M300,306.225
			c-57.713,0-104.488-46.981-104.488-104.93c0-57.948,46.775-104.929,104.488-104.929s104.488,46.981,104.488,104.929
			C404.488,259.243,357.713,306.225,300,306.225z M520.59,526.315c0-0.568-0.127-1.097-0.166-1.655
			c-0.871-59.437-25.106-113.135-63.794-152.438c-4.142-4.583-10.065-7.511-16.715-7.511c-12.504,0-22.639,10.184-22.639,22.736
			c0,6.375,2.615,12.103,6.815,16.235l-0.039,0.049c30.482,31.628,49.341,74.8,49.341,122.476c0,0.588-0.088,1.156-0.098,1.753
			h0.411c0.852,12.26,10.928,21.974,23.363,21.974c12.426,0,22.502-9.714,23.354-21.974h0.166c0-0.372-0.059-0.734-0.059-1.097
			C520.541,526.678,520.59,526.501,520.59,526.315z"/>
	</g>
</g>
</svg>
