<?xml version="1.0" encoding="utf-8"?>
<!-- Generator: Adobe Illustrator 15.0.0, SVG Export Plug-In . SVG Version: 6.00 Build 0)  -->
<!DOCTYPE svg PUBLIC "-//W3C//DTD SVG 1.1//EN" "http://www.w3.org/Graphics/SVG/1.1/DTD/svg11.dtd">
<svg version="1.1" id="图层_1" xmlns="http://www.w3.org/2000/svg" xmlns:xlink="http://www.w3.org/1999/xlink" x="0px" y="0px"
	 width="600px" height="600px" viewBox="0 0 600 600" enable-background="new 0 0 600 600" xml:space="preserve">
<g id="搜索">
	<g>
		<path fill-rule="evenodd" clip-rule="evenodd" d="M484.642,115.36c-87.145-87.145-228.433-87.145-315.578,0
			c-87.145,87.135-87.145,228.423,0,315.568c87.145,87.145,228.433,87.145,315.578,0S571.786,202.495,484.642,115.36z
			 M447.51,393.805c-66.631,66.64-174.674,66.64-241.313,0s-66.64-174.683,0-241.322c66.64-66.639,174.683-66.639,241.313,0
			C514.148,219.122,514.148,327.165,447.51,393.805z M94.809,468.051l-37.123,37.132c-10.248,10.248-10.248,26.875,0,37.123
			c10.257,10.258,26.875,10.258,37.123,0l37.132-37.123c10.248-10.257,10.248-26.875,0-37.132
			C121.684,457.803,105.066,457.803,94.809,468.051z"/>
	</g>
</g>
</svg>
