<?xml version="1.0" encoding="utf-8"?>
<!-- Generator: Adobe Illustrator 18.0.0, SVG Export Plug-In . SVG Version: 6.00 Build 0)  -->
<!DOCTYPE svg PUBLIC "-//W3C//DTD SVG 1.1//EN" "http://www.w3.org/Graphics/SVG/1.1/DTD/svg11.dtd">
<svg version="1.1" id="图层_1" xmlns="http://www.w3.org/2000/svg" xmlns:xlink="http://www.w3.org/1999/xlink" x="0px" y="0px"
	 viewBox="0 0 600 600" enable-background="new 0 0 600 600" xml:space="preserve">
<path fill-rule="evenodd" clip-rule="evenodd" d="M539.8,135.4H419.1h-1c-14.3,0-31.6-10.9-37-17.4c-6.1-7.3-13.2-15.8-19.2-22.9
	c-4.6-5.5-15.6-16.1-33.6-16.1c-9.5,0-49.2,0-58.8,0c-17.6,0-27.1,8-35.1,17.5c-5.8,6.9-12.4,14.9-18.2,21.7
	c-5.2,6.2-22.7,17.1-36.5,17.1h-1H58.2c-15.6,0-28.3-12.7-28.3-28.3c0-15.6,12.7-28.3,28.3-28.3h100.7c0,0,26.4-4.3,37.6-17.5
	C202.9,53.8,210,45,216,37.7c2.8-3.4,20.5-15.3,32.9-15.3c20.2,0,79.5,0,99.9,0c14.2,0,31.2,12.5,34.1,16.1
	c5.9,7.1,13.3,15.2,18.9,22.8c9.4,12.7,37.3,17.4,37.3,17.4h100.7c15.6,0,28.3,12.7,28.3,28.3C568.1,122.7,555.5,135.4,539.8,135.4z
	 M369.8,461.2c-15.6,0-28.3-12.7-28.3-28.3V220.4c0-15.6,12.7-28.3,28.3-28.3c15.6,0,28.3,12.7,28.3,28.3v212.5
	C398.2,448.6,385.5,461.2,369.8,461.2z M256.5,220.4v212.5c0,15.6-12.7,28.3-28.3,28.3c-15.6,0-28.3-12.7-28.3-28.3V220.4
	c0-15.6,12.7-28.3,28.3-28.3C243.8,192.1,256.5,204.8,256.5,220.4z M100.7,177.9c15.6,0,28.3,12.7,28.3,28.3v56.7v226.7
	c0,15.6,12.7,28.3,28.3,28.3h283.3c15.6,0,28.3-12.7,28.3-28.3V262.9v-56.7c0-15.6,12.7-28.3,28.3-28.3c15.6,0,28.3,12.7,28.3,28.3
	v56.7v240.8c0,39.1-31.7,70.8-70.8,70.8H143.2c-39.1,0-70.8-31.7-70.8-70.8V262.9v-56.7C72.3,190.6,85,177.9,100.7,177.9z"/>
</svg>
