<?xml version="1.0" encoding="utf-8"?>
<!-- Generator: Adobe Illustrator 19.2.1, SVG Export Plug-In . SVG Version: 6.00 Build 0)  -->
<svg version="1.1" id="图层_1" xmlns="http://www.w3.org/2000/svg" xmlns:xlink="http://www.w3.org/1999/xlink" x="0px" y="0px"
	 viewBox="0 0 50 50" style="enable-background:new 0 0 50 50;" xml:space="preserve">
<style type="text/css">
	.st0{fill-rule:evenodd;clip-rule:evenodd;}
</style>
<path class="st0" d="M25,50C11.2,50,0,38.8,0,25S11.2,0,25,0c13.8,0,25,11.2,25,25S38.8,50,25,50z M34.6,18.1c0.5-0.5,0.5-1.3,0-1.8
	c-0.5-0.5-1.3-0.5-1.8,0L25,24.2l-7.9-7.9c-0.5-0.5-1.3-0.5-1.8,0c-0.5,0.5-0.5,1.3,0,1.8l7.9,7.9l-7.9,7.9c-0.5,0.5-0.5,1.3,0,1.8
	c0.5,0.5,1.3,0.5,1.8,0l7.9-7.9l1.8-1.8l2.6,2.6c-0.5-0.5-1.3-0.5-1.8,0c-0.5,0.5-0.5,1.3,0,1.8L27.3,30l5.6,5.6
	c0.5,0.5,1.3,0.5,1.8,0c0.5-0.5,0.5-1.3,0-1.8L26.8,26L34.6,18.1z"/>
</svg>
