<?xml version="1.0" encoding="utf-8"?>
<!-- Generator: Adobe Illustrator 15.0.0, SVG Export Plug-In . SVG Version: 6.00 Build 0)  -->
<!DOCTYPE svg PUBLIC "-//W3C//DTD SVG 1.1//EN" "http://www.w3.org/Graphics/SVG/1.1/DTD/svg11.dtd">
<svg version="1.1" id="图层_1" xmlns="http://www.w3.org/2000/svg" xmlns:xlink="http://www.w3.org/1999/xlink" x="0px" y="0px"
	 width="600px" height="600px" viewBox="0 0 600 600" enable-background="new 0 0 600 600" xml:space="preserve">
<g id="园">
	<g>
		<path class="st0" d="M41.2,41.1c-4.6,4.6-10.6,7.1-17.1,7.1c-6.4,0-12.5-2.5-17.1-7.1C2.5,36.6,0,30.5,0,24.1s2.5-12.5,7.1-17
	C11.6,2.5,17.7,0,24.1,0c6.4,0,12.5,2.5,17.1,7.1c4.6,4.6,7.1,10.6,7.1,17S45.7,36.6,41.2,41.1z M39,9.2c-4-4-9.3-6.2-14.9-6.2
	C18.5,3,13.2,5.2,9.2,9.2c-4,4-6.2,9.3-6.2,14.9C3,29.7,5.2,35,9.2,39c4,4,9.3,6.2,14.9,6.2c5.6,0,10.9-2.2,14.9-6.2
	c4-4,6.2-9.3,6.2-14.9C45.2,18.5,43,13.2,39,9.2z"/>
	</g>
</g>
</svg>
