<?xml version="1.0" encoding="utf-8"?>
<!-- Generator: Adobe Illustrator 19.2.1, SVG Export Plug-In . SVG Version: 6.00 Build 0)  -->
<svg version="1.1" id="图层_1" xmlns="http://www.w3.org/2000/svg" xmlns:xlink="http://www.w3.org/1999/xlink" x="0px" y="0px"
	 viewBox="0 0 48 42" style="enable-background:new 0 0 48 42;" xml:space="preserve">
<style type="text/css">
	.st0{fill-rule:evenodd;clip-rule:evenodd;}
</style>
<path class="st0" d="M34.7,0C30,0,26.1,2.2,23.8,3.8c-1.9-1.6-5.2-3.6-9.5-3.6c-3.6,0-7.1,1.5-10.4,4.5C-6.3,14.2,6,25.8,11.3,30.8
	c0.6,0.6,1.2,1.1,1.6,1.5c3,3,6.7,6.9,8.6,8.9l0.1,0.1c0.5,0.5,1.1,0.8,1.9,0.8c0.1,0,0.1,0,0.2,0c0.8-0.1,1.5-0.4,1.9-1
	c0,0,3.1-4.4,8.6-8.5c3.9-2.9,12.9-10.4,13.8-18.7c0.4-3.4-0.7-6.5-3.2-9.2C41.9,1.5,38.5,0,34.7,0z"/>
</svg>
