<?xml version="1.0" encoding="utf-8"?>
<!-- Generator: Adobe Illustrator 19.2.1, SVG Export Plug-In . SVG Version: 6.00 Build 0)  -->
<svg version="1.1" id="图层_1" xmlns="http://www.w3.org/2000/svg" xmlns:xlink="http://www.w3.org/1999/xlink" x="0px" y="0px"
	 viewBox="0 0 48.2 48.2" style="enable-background:new 0 0 48.2 48.2;" xml:space="preserve">
<style type="text/css">
	.st0{fill-rule:evenodd;clip-rule:evenodd;}
</style>
<path class="st0" d="M41.2,41.1c-4.6,4.6-10.6,7.1-17.1,7.1c-6.4,0-12.5-2.5-17.1-7.1C2.5,36.6,0,30.5,0,24.1c0-6.4,2.5-12.5,7.1-17
	C11.6,2.5,17.7,0,24.1,0c6.4,0,12.5,2.5,17.1,7.1c4.6,4.6,7.1,10.6,7.1,17C48.2,30.5,45.7,36.6,41.2,41.1z M39,9.2
	c-4-4-9.3-6.2-14.9-6.2C18.5,3,13.2,5.2,9.2,9.2c-4,4-6.2,9.3-6.2,14.9C3,29.7,5.2,35,9.2,39c4,4,9.3,6.2,14.9,6.2
	c5.6,0,10.9-2.2,14.9-6.2c4-4,6.2-9.3,6.2-14.9C45.2,18.5,43,13.2,39,9.2z M19.2,35.7c-0.3,0.3-0.7,0.5-1.1,0.5c0,0,0,0,0,0
	c-0.4,0-0.8-0.2-1.1-0.5l-8.3-9.8c-0.5-0.6-0.5-1.6,0.2-2.1c0.6-0.5,1.6-0.5,2.1,0.2l7.2,8.5L35.8,14c0.6-0.6,1.5-0.6,2.1,0
	c0.6,0.6,0.6,1.5,0,2.1L19.2,35.7z"/>
</svg>
