<?xml version="1.0" encoding="utf-8"?>
<!-- Generator: Adobe Illustrator 15.0.0, SVG Export Plug-In . SVG Version: 6.00 Build 0)  -->
<!DOCTYPE svg PUBLIC "-//W3C//DTD SVG 1.1//EN" "http://www.w3.org/Graphics/SVG/1.1/DTD/svg11.dtd">
<svg version="1.1" id="图层_1" xmlns="http://www.w3.org/2000/svg" xmlns:xlink="http://www.w3.org/1999/xlink" x="0px" y="0px"
	 width="600px" height="600px" viewBox="0 0 600 600" enable-background="new 0 0 600 600" xml:space="preserve">
<g id="合成路径_3_">
	<g>
		<path fill-rule="evenodd" clip-rule="evenodd" d="M248.636,332.712h228.573L550,149.182H183.486l4.572,12.896L248.636,332.712z
			 M215.445,410.681c-25.892,0.03-46.987,20.948-46.987,46.812c0,25.843,21.095,46.752,46.987,46.752
			c25.97-0.02,46.977-20.909,46.977-46.752C262.422,431.629,241.445,410.711,215.445,410.681z M163.456,356.855v-2.111
			c0.059-11.393,9.194-20.488,20.694-20.518h23.098L119.254,95.756H50v19.346h55.692l73.856,200.033
			c-19.971,2.296-35.458,19.121-35.516,39.58v2.17c0.059,22.032,17.958,39.805,40.059,39.863l340.017,0.029v-19.346l-339.958-0.029
			C172.65,377.373,163.515,368.276,163.456,356.855z M457.785,410.711v-0.03c-25.98,0.03-46.986,20.948-46.986,46.812
			c0,25.843,21.006,46.752,46.986,46.752c25.94,0,47.006-20.909,47.006-46.752C504.791,431.629,483.726,410.711,457.785,410.711z"/>
	</g>
</g>
</svg>
