<?xml version="1.0" encoding="utf-8"?>
<!-- Generator: Adobe Illustrator 15.0.0, SVG Export Plug-In . SVG Version: 6.00 Build 0)  -->
<!DOCTYPE svg PUBLIC "-//W3C//DTD SVG 1.1//EN" "http://www.w3.org/Graphics/SVG/1.1/DTD/svg11.dtd">
<svg version="1.1" id="图层_1" xmlns="http://www.w3.org/2000/svg" xmlns:xlink="http://www.w3.org/1999/xlink" x="0px" y="0px"
	 width="600px" height="600px" viewBox="0 0 600 600" enable-background="new 0 0 600 600" xml:space="preserve">
<g id="合成路径_10_">
	<g>
		<path fill-rule="evenodd" clip-rule="evenodd" d="M50,50v500h500V50H50z M449.58,248.691
			c-5.439,58.818-62.178,112.813-86.338,133.291c-34.033,28.887-53.34,60.283-53.496,60.605c-2.583,4.229-6.982,6.982-11.807,7.363
			c-0.41,0.039-0.796,0.049-1.201,0.049c-4.395,0-8.633-1.963-11.582-5.43l-0.723-0.889c-12.056-14.346-35.122-41.65-53.955-63.408
			c-2.402-2.783-5.776-6.416-9.697-10.615c-32.974-35.313-110.151-117.998-46.162-186.191
			c20.171-21.445,41.948-32.324,64.722-32.324c27.031,0,47.583,14.639,59.414,25.908C313.008,165.635,337.754,150,366.602,150
			c24.131,0,45.293,11.064,62.9,32.871C445.049,202.168,451.826,224.307,449.58,248.691z"/>
	</g>
</g>
</svg>
