<?xml version="1.0" encoding="utf-8"?>
<!-- Generator: Adobe Illustrator 18.0.0, SVG Export Plug-In . SVG Version: 6.00 Build 0)  -->
<!DOCTYPE svg PUBLIC "-//W3C//DTD SVG 1.1//EN" "http://www.w3.org/Graphics/SVG/1.1/DTD/svg11.dtd">
<svg version="1.1" id="图层_1" xmlns="http://www.w3.org/2000/svg" xmlns:xlink="http://www.w3.org/1999/xlink" x="0px" y="0px"
	 viewBox="0 0 600 600" enable-background="new 0 0 600 600" xml:space="preserve">
<path fill-rule="evenodd" clip-rule="evenodd" d="M517.1,305.3c0-119.4-96.9-216.2-216.5-216.2C181,89.1,84,185.9,84,305.3
	c0,59,23.7,112.4,62,151.5l-64.1,64l16.1,16.1l64.7-64.6c37.5,30.8,85.4,49.4,137.7,49.4c52.3,0,100.3-18.5,137.7-49.4l64.7,64.6
	l16.1-16.1l-64-64C493.4,417.8,517.1,364.3,517.1,305.3z M311.9,273.5V144.3h-22.8v129.2c-9.5,3.4-17,10.9-20.4,20.4h-88.6v22.7
	h88.6c4.7,13.1,17.1,22.6,31.8,22.6c18.8,0,33.9-15.2,33.9-33.9C334.5,290.6,325.1,278.2,311.9,273.5z M72.7,138
	c0-13.3,5-26.4,15.1-36.5c10.1-10.1,23.2-15.1,36.5-15.1c13.3,0,26.4,5,36.5,15.1L177,85.4c-14.5-14.5-33.6-21.8-52.6-21.8
	c-19,0-38.1,7.3-52.6,21.8C57.2,99.9,49.9,119,50,138c0,18.9,7.3,38.1,21.8,52.5l16.1-16.1C77.7,164.4,72.7,151.3,72.7,138z
	 M529.3,85.4c-14.5-14.5-33.6-21.8-52.6-21.8c-19,0-38.1,7.3-52.7,21.8l16.1,16.1c10.1-10.1,23.3-15.1,36.6-15.1
	c13.2,0,26.4,5,36.6,15.1c10.1,10.1,15.1,23.2,15.1,36.5c0,13.3-5,26.4-15.1,36.5l16.1,16.1c14.5-14.5,21.8-33.6,21.8-52.6
	C551.2,119,543.9,99.9,529.3,85.4z"/>
</svg>
