<?xml version="1.0" encoding="utf-8"?>
<!-- Generator: Adobe Illustrator 18.0.0, SVG Export Plug-In . SVG Version: 6.00 Build 0)  -->
<!DOCTYPE svg PUBLIC "-//W3C//DTD SVG 1.1//EN" "http://www.w3.org/Graphics/SVG/1.1/DTD/svg11.dtd">
<svg version="1.1" id="图层_1" xmlns="http://www.w3.org/2000/svg" xmlns:xlink="http://www.w3.org/1999/xlink" x="0px" y="0px"
	 viewBox="0 0 600 600" enable-background="new 0 0 600 600" xml:space="preserve">
<g>
	<path fill-rule="evenodd" clip-rule="evenodd" d="M213,286.5c-3.3,0-6,2.7-6,6c0,3.3,2.7,6,6,6h22.3v21.2c0,3.3,2.7,6,6,6
		c3.3,0,6-2.7,6-6v-21.2h21.2c3.3,0,6-2.7,6-6c0-3.3-2.7-6-6-6h-21.2v-22.3c0-3.3-2.7-6-6-6c-3.3,0-6,2.7-6,6v22.3H213z M213,114.7
		c-3.3,0-6,2.7-6,6c0,3.3,2.7,6,6,6h22.3v21.2c0,3.3,2.7,6,6,6c3.3,0,6-2.7,6-6v-21.2h21.2c3.3,0,6-2.7,6-6c0-3.3-2.7-6-6-6h-21.2
		V92.5c0-3.3-2.7-6-6-6c-3.3,0-6,2.7-6,6v22.3H213z M44.5,286.5c-3.3,0-6,2.7-6,6c0,3.3,2.7,6,6,6h22.3v21.2c0,3.3,2.7,6,6,6
		c3.3,0,6-2.7,6-6v-21.2h21.2c3.3,0,6-2.7,6-6c0-3.3-2.7-6-6-6H78.7v-22.3c0-3.3-2.7-6-6-6c-3.3,0-6,2.7-6,6v22.3H44.5z M44.5,114.7
		c-3.3,0-6,2.7-6,6c0,3.3,2.7,6,6,6h22.3v21.2c0,3.3,2.7,6,6,6c3.3,0,6-2.7,6-6v-21.2h21.2c3.3,0,6-2.7,6-6c0-3.3-2.7-6-6-6H78.7
		V92.5c0-3.3-2.7-6-6-6c-3.3,0-6,2.7-6,6v22.3H44.5z"/>
	<path fill-rule="evenodd" clip-rule="evenodd" d="M430.2,468.7v-33.6h33.6v33.6H430.2z M384.4,435.1H418v33.6h-33.6V435.1z
		 M418,389.3v33.6h-33.6v-33.6H418z M463.8,422.9h-33.6v-33.6h33.6V422.9z M518.8,380.3l-94.7-73.6l-94.7,73.6v122h189.3V380.3z"/>
	<path d="M186,239.5c1.7,0,3.1-1.2,3.1-2.7v-68c0-1.5-1.4-2.7-3.1-2.7c-1.7,0-3.1,1.2-3.1,2.7v68C182.9,238.3,184.3,239.5,186,239.5
		z"/>
	<path d="M167.6,239.5c1.7,0,3.1-1.2,3.1-2.7v-68c0-1.5-1.4-2.7-3.1-2.7c-1.7,0-3.1,1.2-3.1,2.7v68
		C164.6,238.3,165.9,239.5,167.6,239.5z"/>
	<path d="M149.3,168.8c0-1.5-1.4-2.7-3.1-2.7c-1.7,0-3.1,1.2-3.1,2.7v68c0,1.5,1.4,2.7,3.1,2.7c1.7,0,3.1-1.2,3.1-2.7V168.8z"/>
	<path d="M127.9,166.1c-1.7,0-3.1,1.2-3.1,2.7v68c0,1.5,1.4,2.7,3.1,2.7c1.7,0,3.1-1.2,3.1-2.7v-68
		C131,167.3,129.6,166.1,127.9,166.1z"/>
	<path fill-rule="evenodd" clip-rule="evenodd" d="M137.1,479.2v17h39.7v-16.9c-0.3-8-4.8-22.8-19.9-22.8
		C141.9,456.5,137.4,471.3,137.1,479.2z M168.7,488.4c-5.3,0-18.2,0-23.5,0c0-3.8,0-9.1,0-9.1c0-0.5,0.8-15,11.7-15
		c11,0,11.7,14.5,11.7,15.2C168.7,479.5,168.7,484.6,168.7,488.4z"/>
	<path fill-rule="evenodd" clip-rule="evenodd" d="M166.7,446.5c16.5,7.5,17.6,33.5,17.7,33.8l0,23.2h-55.8v-23.3
		c0-0.1,1.2-26.1,17.6-33.6l2.3-1.1v-27.1h15.9v27.1L166.7,446.5z M123.3,258c-17.6-2.2-18.1-19.9-18.1-22.2v-0.2v-82.3l0-8l-8,0
		v90.2c-0.3,9.4,4.6,28,25.3,30.5l0.2,0h17.8v17.2v8v119.3v8v22.2c-18.7,10.6-19.9,38.3-20,39.5v31.4h71.7v-31.3
		c0-1.4-1.3-29-20-39.6v-22.2v-8V291.1v-8v-17.2h17.8l0.2,0c20.1-2.4,25.3-20.1,25.3-29.8l0-0.7v-0.1v-90.1h-4l-4,0l0,8v82.3v0.2
		c0,2.3-0.6,20-18.1,22.2h-25.2v25.2h-15.9V258H123.3z M148.5,291.1h15.9v119.3h-15.9V291.1z"/>
	<path fill-rule="evenodd" clip-rule="evenodd" d="M255.5,413.8l0.2,0.1l0.3,0.1c5.3,1.8,10.9-1.3,14.2-7.9
		c3.4-6.7,3.9-15.6-1.9-19.7c-3-2.1-7.8-3.8-12.4-2.2c-2.8,1-6.5,3.5-8.4,10.2C244.6,405.1,251.5,411.7,255.5,413.8z M255.3,396.6
		c0.5-1.9,1.6-4.2,3.4-4.9c1.6-0.6,3.8,0.2,5.2,1.1c1.4,1,1.5,5.5-0.6,9.6c-1.1,2.2-3,4.2-4.4,4c-1.2-0.7-4-2.8-4-6.9
		C254.8,398.7,255,397.7,255.3,396.6z"/>
	<path fill-rule="evenodd" clip-rule="evenodd" d="M260.6,426.1c-11.5-2.4-18.9,8.6-21.3,14.7l-0.1,0.3l-0.1,0.3
		c-3,13.5,2.8,20.8,6.4,23.9l0,0c3.6,3,8.5,4.3,13.3,3.3c5.3-1.1,9.8-4.7,12.6-10.2c2.9-5.8,3.9-15.6,0.2-23.3
		C269.4,430.3,265.5,427.1,260.6,426.1z M264.4,454.9c-2.1,4.2-5,5.5-7,6c-2.4,0.5-4.9-0.1-6.6-1.6c-2.2-1.9-4.5-5.1-4.5-10.7
		c0-1.5,0.2-3.3,0.6-5.2c0.6-1.5,4.9-11,12.1-9.5c2.5,0.5,4.3,2.1,5.6,4.7C267,443.7,266.3,451,264.4,454.9z"/>
	<path fill-rule="evenodd" clip-rule="evenodd" d="M531.6,325.4c-10.8-6-19.4-10.7-25-30.3c-3.8-13.2-9.9-22-18.3-26.2
		c-7.9-4-17.6-3.9-29,0.3c-10.3,3.8-15.3,0.6-22.8-4.2c-4.4-2.8-9.4-6-16.1-8.3c-17-5.6-34.3,0.4-46.3,16.2c-2.9,3.9-7.7,4-16,3.9
		c-8.9-0.2-19.9-0.3-29.7,7.9c-13.2,11.1-10.8,21.3-8.8,29.5c1.9,7.9,3.4,14.2-5.5,23c-12.8,12.7-9.5,27.5-5.9,33.6
		c2.1,3.8,6.8,9.2,13.7,12.1v128.5h203.9V382.3c16.5-4.2,21.4-17.1,22.7-22.9C551.6,346.8,544.5,332.6,531.6,325.4z M330,381.3
		c2.9-2.3,89.4-70.1,94-73.8c4.6,3.6,91.1,71.5,94,73.8c0,3.6,0,114.9,0,122.3c-7.5,0-180.5,0-188,0C330,496.2,330,384.9,330,381.3z
		 M540.9,357.5c-1.3,5.5-5.4,14.6-18.3,17.4l-98.7-77.4l-2.5,1.9l-96.9,76.1c-5.9-2.7-9.1-8.2-9.3-8.5c-0.3-0.5-7-12.5,4.6-24
		c12-12,9.6-22.2,7.6-30.5c-1.9-7.9-3.3-13.6,6.2-21.5c7.5-6.3,16.1-6.2,24.4-6c8.3,0.1,17,0.3,22.5-7c4.7-6.2,17.7-20,37.4-13.5
		c5.8,1.9,10.1,4.7,14.3,7.4c8.1,5.2,15.8,10.2,29.9,5c9.2-3.4,16.8-3.6,22.6-0.7c6.3,3.2,11.1,10.3,14.2,21.3
		c6.5,22.7,17.3,28.7,28.8,35C537.4,337.7,543,348.5,540.9,357.5z"/>
</g>
<g>
	<path d="M447.2,151.7v-40.5h4.5v3.8c1.1-1.5,2.3-2.6,3.6-3.4c1.3-0.7,3-1.1,4.9-1.1c2.5,0,4.7,0.6,6.6,1.9c1.9,1.3,3.4,3.1,4.3,5.5
		s1.5,4.9,1.5,7.7c0,3-0.5,5.7-1.6,8.1c-1.1,2.4-2.6,4.2-4.7,5.5c-2.1,1.3-4.2,1.9-6.5,1.9c-1.7,0-3.1-0.4-4.5-1
		c-1.3-0.7-2.4-1.6-3.2-2.6v14.3H447.2z M451.7,125.9c0,3.8,0.8,6.6,2.3,8.4c1.5,1.8,3.4,2.7,5.5,2.7c2.2,0,4.1-0.9,5.7-2.8
		s2.4-4.8,2.4-8.7c0-3.7-0.8-6.5-2.3-8.4c-1.5-1.9-3.4-2.8-5.5-2.8c-2.1,0-4,1-5.6,3S451.7,122.2,451.7,125.9z"/>
	<path d="M478.5,140.4V100h5v40.5H478.5z"/>
	<path d="M510.4,140.4v-4.3c-2.3,3.3-5.4,5-9.3,5c-1.7,0-3.3-0.3-4.8-1c-1.5-0.7-2.6-1.5-3.3-2.5s-1.2-2.2-1.5-3.7
		c-0.2-1-0.3-2.5-0.3-4.6v-18.2h5v16.3c0,2.6,0.1,4.3,0.3,5.2c0.3,1.3,1,2.3,2,3.1c1,0.7,2.3,1.1,3.8,1.1s2.9-0.4,4.2-1.1
		c1.3-0.8,2.2-1.8,2.8-3.1c0.5-1.3,0.8-3.2,0.8-5.7v-15.7h5v29.3H510.4z"/>
	<path d="M520.6,131.7l4.9-0.8c0.3,2,1,3.5,2.3,4.5c1.3,1,3,1.6,5.3,1.6c2.3,0,4-0.5,5.1-1.4c1.1-0.9,1.7-2,1.7-3.3
		c0-1.1-0.5-2-1.5-2.6c-0.7-0.4-2.4-1-5.1-1.7c-3.6-0.9-6.2-1.7-7.6-2.4c-1.4-0.7-2.5-1.6-3.2-2.8c-0.7-1.2-1.1-2.5-1.1-3.9
		c0-1.3,0.3-2.5,0.9-3.6s1.4-2,2.4-2.8c0.8-0.6,1.8-1.1,3.2-1.4c1.3-0.4,2.8-0.6,4.3-0.6c2.3,0,4.3,0.3,6.1,1c1.7,0.7,3,1.6,3.9,2.7
		c0.8,1.1,1.4,2.6,1.7,4.5l-4.9,0.7c-0.2-1.5-0.9-2.7-1.9-3.5c-1.1-0.8-2.6-1.3-4.5-1.3c-2.3,0-3.9,0.4-4.9,1.1
		c-1,0.8-1.5,1.6-1.5,2.6c0,0.6,0.2,1.2,0.6,1.7c0.4,0.5,1,1,1.9,1.3c0.5,0.2,2,0.6,4.4,1.3c3.5,0.9,6,1.7,7.4,2.3
		c1.4,0.6,2.5,1.5,3.3,2.6c0.8,1.1,1.2,2.6,1.2,4.3c0,1.7-0.5,3.2-1.4,4.7c-1,1.5-2.4,2.6-4.2,3.4c-1.8,0.8-3.9,1.2-6.2,1.2
		c-3.8,0-6.7-0.8-8.7-2.4C522.4,137.1,521.2,134.8,520.6,131.7z"/>
</g>
<g>
	<path d="M284.7,197.9v-53.4h7.1V171l26.5-26.5h9.6l-22.4,21.6l23.4,31.7h-9.3l-19-27l-8.7,8.5v18.5H284.7z"/>
	<path d="M334,152.1v-7.5h6.6v7.5H334z M334,197.9v-38.7h6.6v38.7H334z"/>
	<path d="M364.8,192l0.9,5.8c-1.8,0.4-3.5,0.6-5,0.6c-2.4,0-4.2-0.4-5.5-1.1c-1.3-0.8-2.2-1.7-2.8-3s-0.8-3.8-0.8-7.7v-22.2h-4.8
		v-5.1h4.8v-9.6l6.5-3.9v13.5h6.6v5.1h-6.6v22.6c0,1.9,0.1,3.1,0.3,3.6c0.2,0.5,0.6,1,1.1,1.3c0.5,0.3,1.3,0.5,2.2,0.5
		C362.7,192.3,363.6,192.2,364.8,192z"/>
	<path d="M396.4,183.7l6.4,0.8c-0.7,4.4-2.5,7.9-5.4,10.4s-6.5,3.8-10.7,3.8c-5.3,0-9.5-1.7-12.8-5.2c-3.2-3.5-4.8-8.4-4.8-14.9
		c0-4.2,0.7-7.8,2.1-11c1.4-3.1,3.5-5.5,6.3-7c2.8-1.6,5.9-2.3,9.2-2.3c4.2,0,7.6,1.1,10.3,3.2c2.7,2.1,4.4,5.1,5.1,9l-6.4,1
		c-0.6-2.6-1.7-4.6-3.2-5.9c-1.5-1.3-3.4-2-5.6-2c-3.3,0-6,1.2-8,3.5c-2.1,2.4-3.1,6.1-3.1,11.2c0,5.2,1,9,3,11.3
		c2,2.4,4.6,3.5,7.8,3.5c2.6,0,4.7-0.8,6.4-2.4C394.9,189.4,396,187,396.4,183.7z"/>
	<path d="M408.5,197.9v-53.4h6.6v19.2c3.1-3.5,6.9-5.3,11.6-5.3c2.9,0,5.4,0.6,7.5,1.7c2.1,1.1,3.6,2.7,4.5,4.7s1.4,4.9,1.4,8.7
		v24.5h-6.6v-24.5c0-3.3-0.7-5.7-2.1-7.2s-3.4-2.2-6-2.2c-1.9,0-3.8,0.5-5.5,1.5c-1.7,1-2.9,2.4-3.7,4.1c-0.7,1.7-1.1,4.1-1.1,7.1
		v21.2H408.5z"/>
	<path d="M476.4,185.5l6.8,0.8c-1.1,4-3,7-5.9,9.2c-2.9,2.2-6.6,3.3-11.1,3.3c-5.7,0-10.1-1.7-13.5-5.2s-5-8.4-5-14.7
		c0-6.5,1.7-11.6,5-15.1c3.3-3.6,7.7-5.4,13-5.4c5.2,0,9.4,1.8,12.7,5.3c3.3,3.5,4.9,8.5,4.9,14.9c0,0.4,0,1,0,1.7h-28.8
		c0.2,4.2,1.4,7.5,3.6,9.8s4.9,3.4,8.1,3.4c2.4,0,4.5-0.6,6.2-1.9C474.1,190.2,475.4,188.2,476.4,185.5z M454.9,174.9h21.6
		c-0.3-3.3-1.1-5.7-2.5-7.3c-2.1-2.5-4.8-3.8-8.1-3.8c-3,0-5.5,1-7.6,3C456.3,168.8,455.1,171.5,454.9,174.9z"/>
	<path d="M491.4,197.9v-38.7h5.9v5.5c2.8-4.2,6.9-6.4,12.3-6.4c2.3,0,4.5,0.4,6.4,1.3c2,0.8,3.4,1.9,4.4,3.3c1,1.4,1.7,3,2,4.8
		c0.2,1.2,0.4,3.3,0.4,6.4v23.8h-6.6v-23.5c0-2.7-0.3-4.7-0.8-6c-0.5-1.3-1.4-2.4-2.7-3.2c-1.3-0.8-2.8-1.2-4.6-1.2
		c-2.8,0-5.2,0.9-7.2,2.7c-2,1.8-3,5.1-3,10.1v21.1H491.4z"/>
</g>
</svg>
