<?xml version="1.0" encoding="utf-8"?>
<!-- Generator: Adobe Illustrator 18.0.0, SVG Export Plug-In . SVG Version: 6.00 Build 0)  -->
<!DOCTYPE svg PUBLIC "-//W3C//DTD SVG 1.1//EN" "http://www.w3.org/Graphics/SVG/1.1/DTD/svg11.dtd">
<svg version="1.1" id="图层_1" xmlns="http://www.w3.org/2000/svg" xmlns:xlink="http://www.w3.org/1999/xlink" x="0px" y="0px"
	 viewBox="0 0 600 600" enable-background="new 0 0 600 600" xml:space="preserve">
<g>
	<path fill-rule="evenodd" clip-rule="evenodd" d="M303,554.9c-1.1,0-2.3,0-3.6,0l0,0c-16.6,0-33.2-1.7-49.7-5.1l0,0l-9.4-1.9
		l-6.9-58.3c-1.5-0.6-3-1.1-4.5-1.7l0,0l-42.1,40.1l-8.6-4.9c-7.4-4.2-14.8-8.8-22-13.8l0,0c-7.6-5.3-14.8-11.2-21.7-17.3l0,0
		l-7.2-6.5l23.2-53.9c-1-1.2-2-2.5-3-3.7l0,0l-56.6,13.7l-5-8.5c-9.2-15.6-16.7-32.1-22.3-48.9l0,0l-3.2-9.2l47.1-35.3
		c-0.2-1.5-0.5-3-0.7-4.5l0,0l-55.7-16.5l-0.4-9.6c0-1,0-1.8,0-2.5l0,0c0-17.1,1.7-34.3,5.3-51.4l0,0l2-9.4l58.2-6.9
		c0.5-1.5,1.1-3,1.7-4.5l0,0l-40.1-42.2l4.9-8.6c4.2-7.4,8.9-14.8,14-22.2l0,0c5.3-7.4,11.1-14.7,17.2-21.6l0,0l6.4-7.1l53.8,23.2
		c1.2-1,2.4-2,3.6-3l0,0l-13.6-56.5l8.4-5.1c15.5-9.3,31.9-16.7,48.9-22.4l0,0l9.1-3l35.2,47.1c1.6-0.4,3.1-0.5,4.6-0.8l0,0
		l16.3-55.6l9.8-0.3c1.4-0.1,2.8-0.1,4.1-0.1l0,0c16.6,0,33.1,1.8,49.5,5.1l0,0l9.5,1.9l6.9,58.4c1.5,0.6,3,1.1,4.5,1.7l0,0l42-40
		l8.6,4.7c7.6,4.3,14.8,8.9,22.1,13.9l0,0c7.7,5.5,14.8,11.2,21.7,17.4l0,0l7.2,6.4l-23.1,53.9c1,1.2,2,2.4,3,3.7l0,0l56.5-13.8
		l5,8.6c9.2,15.7,16.6,32,22.3,48.8l0,0l3.1,9.2l-47.1,35.3c0.3,1.5,0.5,3,0.8,4.6l0,0l56,16.6l-0.1,10.1c0,1,0,2.1,0,3.4l0,0
		c0,16.6-1.8,33.3-5.1,49.7l0,0l-2,9.5l-58.3,7c-0.5,1.4-1.1,2.9-1.7,4.3l0,0l40.2,42.3l-5,8.7c-4.2,7.4-8.8,14.7-14,22.1l0,0
		c-5.4,7.4-11.2,14.7-17.3,21.6l0,0l-6.4,7.2l-53.8-23.2c-1.2,1.1-2.4,2-3.6,3l0,0l13.6,56.6l-8.4,5.1c-15.6,9.3-32,16.6-48.9,22.3
		l0,0l-9.1,3l-35.2-47.1c-1.5,0.3-3,0.5-4.6,0.8l0,0l-16.5,56H303L303,554.9z M293.1,528.1l15.9-53.9l9-0.8
		c6.2-0.6,12.6-1.7,18.8-3.1l0,0l8.5-1.9l33.8,45.2c8.9-3.4,17.6-7.3,26.1-11.9l0,0l-13.1-54.2l7.1-5.3c5.2-3.9,10.2-8,15.1-12.5
		l0,0l6.4-5.8l51.7,22.3c3.2-3.9,6.3-8,9.2-12.1l0,0c2.6-3.6,5.1-7.4,7.4-11.3l0,0l-38.6-40.7l3.8-8.3c2.6-5.6,4.9-11.7,6.8-17.7
		l0,0l2.6-8.3l56-6.7c1.6-9.5,2.5-19,2.8-28.5l0,0l-53.4-15.8l-1.1-8.7c-0.8-6.6-1.8-13-3.2-19.4l0,0l-1.8-8.3l45-33.8
		c-3.4-8.8-7.4-17.6-11.9-26.1l0,0l-54.1,13.1l-5.3-7.2c-3.9-5.3-8-10.4-12.4-15.1l0,0l-5.9-6.4l22.2-51.7c-3.9-3.2-7.9-6.3-12-9.2
		l0,0c-3.9-2.6-7.6-5.2-11.4-7.4l0,0l-40.5,38.6l-8.2-3.8c-5.9-2.7-11.9-4.9-18.1-6.8l0,0l-8.3-2.6l-6.6-56
		c-9.5-1.4-19-2.4-28.5-2.6l0,0l-15.7,53.7l-8.9,0.9c-6.4,0.7-12.9,1.7-19.2,3.1l0,0l-8.4,1.9l-33.7-45.2c-9,3.3-17.7,7.4-26.1,11.9
		l0,0l13,54.3l-7.2,5.3c-5.1,3.8-10.2,8-15.1,12.4l0,0l-6.4,5.8L127.6,165c-3.2,3.9-6.2,7.9-9.1,11.9l0,0c-2.6,3.8-5.1,7.7-7.6,11.5
		l0,0l38.4,40.4l-3.5,8.2c-2.7,6-4.9,12.1-7,18.5l0,0l-2.7,8l-55.6,6.6c-1.5,9.4-2.4,18.9-2.8,28.4l0,0l53.8,15.9l0.9,9
		c0.7,6.5,1.6,12.8,3,18.9l0,0l1.9,8.5l-45.1,33.8c3.4,8.9,7.4,17.7,11.9,26.2l0,0l54.1-13.1l5.3,7.2c3.9,5.2,8.1,10.3,12.4,15.2
		l0,0l5.8,6.4l-22.2,51.6c3.9,3.2,7.9,6.3,12,9.2l0,0c3.7,2.5,7.5,5.1,11.4,7.4l0,0l40.4-38.5l8.2,3.7c6,2.7,11.9,4.9,18.1,6.8l0,0
		l8.3,2.5l6.6,56.1C274,526.9,283.5,527.8,293.1,528.1L293.1,528.1z M476.1,462.4l5.3-12.4L476.1,462.4L476.1,462.4z"/>
	<path fill-rule="evenodd" clip-rule="evenodd" d="M215.1,305.6c0-46.8,38-84.9,84.8-84.9l0,0c46.9,0,84.8,38.1,84.8,84.9l0,0
		c0,46.9-38,84.9-84.8,84.9l0,0C253.1,390.6,215.1,352.5,215.1,305.6L215.1,305.6z M300,363.8c32.1,0,58-26.1,58.1-58.2l0,0
		c-0.1-32.1-26-58.1-58.1-58.1l0,0c-32.1,0-58.1,26.1-58.1,58.1l0,0l0,0C241.9,337.7,267.9,363.7,300,363.8L300,363.8z"/>
</g>
</svg>
