<?xml version="1.0" encoding="utf-8"?>
<!-- Generator: Adobe Illustrator 18.0.0, SVG Export Plug-In . SVG Version: 6.00 Build 0)  -->
<!DOCTYPE svg PUBLIC "-//W3C//DTD SVG 1.0//EN" "http://www.w3.org/TR/2001/REC-SVG-20010904/DTD/svg10.dtd">
<svg version="1.0" id="图层_1" xmlns="http://www.w3.org/2000/svg" xmlns:xlink="http://www.w3.org/1999/xlink" x="0px" y="0px"
	 viewBox="0 0 600 600" enable-background="new 0 0 600 600" xml:space="preserve">
<path fill-rule="evenodd" clip-rule="evenodd" fill="#040000" d="M25,300C25,147.6,148.6,24,301,24c152.4,0,276,123.6,276,276
	S453.4,576,301,576C148.6,576,25,452.4,25,300z"/>
<path fill-rule="evenodd" clip-rule="evenodd" fill="#FFFFFF" d="M314.6,307.8l61.2,61.2c3.8,3.8,3.8,9.8,0,13.6
	c-3.8,3.8-9.8,3.8-13.6,0l-43.7-43.7l2.9,2.9c-3.8-3.8-3.8-9.8,0-13.6c3.8-3.8,9.8-3.8,13.6,0L314.6,307.8L301,321.4l0,0l-61.2,61.2
	c-3.8,3.8-9.8,3.8-13.6,0c-3.8-3.8-3.8-9.8,0-13.6l61.2-61.2l-61.2-61.2c-3.8-3.8-3.8-9.8,0-13.6c3.8-3.8,9.8-3.8,13.6,0l61.2,61.2
	l61.2-61.2c3.8-3.8,9.8-3.8,13.6,0c3.8,3.8,3.8,9.8,0,13.6L314.6,307.8z"/>
</svg>
